<svg xmlns="http://www.w3.org/2000/svg" viewBox="0 0 800 380" font-family="'Hiragino Sans', 'Noto Sans JP', sans-serif">
  <defs>
    <linearGradient id="ng3" x1="0%" y1="0%" x2="100%" y2="0%">
      <stop offset="0%" style="stop-color:#1a2f5e"/>
      <stop offset="100%" style="stop-color:#2a4a8e"/>
    </linearGradient>
  </defs>
  <rect width="800" height="380" fill="#f8fafc" rx="12"/>
  <text x="400" y="34" text-anchor="middle" font-size="15" font-weight="bold" fill="#1a2f5e">特定技能1号 日本語試験の比較</text>
  <text x="400" y="130" text-anchor="middle" font-size="28" font-weight="bold" fill="#e5e7eb">VS</text>
  <rect x="30" y="50" width="340" height="290" rx="12" fill="white" stroke="#1a2f5e" stroke-width="2"/>
  <rect x="30" y="50" width="340" height="52" rx="12" fill="url(#ng3)"/>
  <rect x="30" y="82" width="340" height="20" fill="url(#ng3)"/>
  <text x="200" y="72" text-anchor="middle" font-size="11" fill="#c9a84c" font-weight="bold">こちらがおすすめ</text>
  <text x="200" y="92" text-anchor="middle" font-size="14" fill="white" font-weight="bold">JFT-Basic（国際交流基金）</text>
  <circle cx="200" cy="152" r="44" fill="#1a2f5e" stroke="#c9a84c" stroke-width="3"/>
  <text x="200" y="145" text-anchor="middle" font-size="11" fill="#c9a84c">合格率</text>
  <text x="200" y="168" text-anchor="middle" font-size="26" font-weight="bold" fill="white">47%</text>
  <line x1="50" y1="208" x2="350" y2="208" stroke="#e5e7eb" stroke-width="1"/>
  <text x="55" y="228" font-size="11" fill="#374151">📅 実施回数</text>
  <text x="330" y="228" text-anchor="end" font-size="11" fill="#1a2f5e" font-weight="bold">年6回（ほぼ毎月）</text>
  <line x1="50" y1="238" x2="350" y2="238" stroke="#f3f4f6" stroke-width="1"/>
  <text x="55" y="258" font-size="11" fill="#374151">📋 方式</text>
  <text x="330" y="258" text-anchor="end" font-size="11" fill="#1a2f5e" font-weight="bold">CBT（当日に結果判明）</text>
  <line x1="50" y1="268" x2="350" y2="268" stroke="#f3f4f6" stroke-width="1"/>
  <text x="55" y="288" font-size="11" fill="#374151">💴 受験料（国内）</text>
  <text x="330" y="288" text-anchor="end" font-size="11" fill="#1a2f5e" font-weight="bold">約7,000円</text>
  <line x1="50" y1="298" x2="350" y2="298" stroke="#f3f4f6" stroke-width="1"/>
  <text x="55" y="318" font-size="11" fill="#374151">🎯 合格基準</text>
  <text x="330" y="318" text-anchor="end" font-size="11" fill="#1a2f5e" font-weight="bold">A2相当（250点中200点以上）</text>
  <rect x="55" y="328" width="280" height="4" rx="2" fill="#e5e7eb"/>
  <rect x="55" y="328" width="224" height="4" rx="2" fill="#1a2f5e"/>
  <rect x="430" y="50" width="340" height="290" rx="12" fill="white" stroke="#9ca3af" stroke-width="1.5"/>
  <rect x="430" y="50" width="340" height="52" rx="12" fill="#6b7280"/>
  <rect x="430" y="82" width="340" height="20" fill="#6b7280"/>
  <text x="600" y="76" text-anchor="middle" font-size="11" fill="#e5e7eb">国際資格として活用したい場合</text>
  <text x="600" y="94" text-anchor="middle" font-size="14" fill="white" font-weight="bold">JLPT N4（日本語能力試験）</text>
  <circle cx="600" cy="152" r="44" fill="#6b7280" stroke="#d1d5db" stroke-width="3"/>
  <text x="600" y="145" text-anchor="middle" font-size="11" fill="#e5e7eb">合格率</text>
  <text x="600" y="168" text-anchor="middle" font-size="26" font-weight="bold" fill="white">31.6%</text>
  <line x1="450" y1="208" x2="750" y2="208" stroke="#e5e7eb" stroke-width="1"/>
  <text x="455" y="228" font-size="11" fill="#374151">📅 実施回数</text>
  <text x="730" y="228" text-anchor="end" font-size="11" fill="#6b7280" font-weight="bold">年2回（7月・12月）</text>
  <line x1="450" y1="238" x2="750" y2="238" stroke="#f3f4f6" stroke-width="1"/>
  <text x="455" y="258" font-size="11" fill="#374151">📋 方式</text>
  <text x="730" y="258" text-anchor="end" font-size="11" fill="#6b7280" font-weight="bold">マークシート（約2ヶ月後に結果）</text>
  <line x1="450" y1="268" x2="750" y2="268" stroke="#f3f4f6" stroke-width="1"/>
  <text x="455" y="288" font-size="11" fill="#374151">💴 受験料（国内）</text>
  <text x="730" y="288" text-anchor="end" font-size="11" fill="#6b7280" font-weight="bold">7,500円（2025年から）</text>
  <line x1="450" y1="298" x2="750" y2="298" stroke="#f3f4f6" stroke-width="1"/>
  <text x="455" y="318" font-size="11" fill="#374151">🎯 合格基準</text>
  <text x="730" y="318" text-anchor="end" font-size="11" fill="#6b7280" font-weight="bold">N4（180点満点中90点以上）</text>
  <rect x="455" y="328" width="280" height="4" rx="2" fill="#e5e7eb"/>
  <rect x="455" y="328" width="88" height="4" rx="2" fill="#6b7280"/>
  <text x="400" y="362" text-anchor="middle" font-size="10" fill="#6b7280">💡 技能実習2号を同分野で良好に修了した場合は両試験ともに免除。移行を急ぐ場合はJFT-Basicが有利</text>
  <text x="400" y="376" text-anchor="middle" font-size="9" fill="#9ca3af">出典：国際交流基金 2024年7-8月JFT-Basicテスト実施概要報告 / 2023年第2回JLPTデータ</text>
</svg>