<svg xmlns="http://www.w3.org/2000/svg" viewBox="0 0 800 360" font-family="'Hiragino Sans', 'Noto Sans JP', sans-serif">
  <defs>
    <linearGradient id="navyGrad2" x1="0%" y1="0%" x2="100%" y2="0%">
      <stop offset="0%" style="stop-color:#1a2f5e"/>
      <stop offset="100%" style="stop-color:#2a4a8e"/>
    </linearGradient>
    <marker id="arrow" markerWidth="8" markerHeight="8" refX="6" refY="4" orient="auto">
      <polygon points="0 0, 8 4, 0 8" fill="#c9a84c"/>
    </marker>
  </defs>
  <rect width="800" height="360" fill="#f8fafc" rx="12"/>
  <text x="400" y="34" text-anchor="middle" font-size="15" font-weight="bold" fill="#1a2f5e">育成就労3年間 日本語・技能ロードマップ</text>
  <rect x="30" y="50" width="100" height="36" rx="6" fill="#e5e7eb"/>
  <text x="80" y="72" text-anchor="middle" font-size="11" fill="#6b7280" font-weight="bold">フェーズ</text>
  <rect x="140" y="50" width="185" height="36" rx="6" fill="url(#navyGrad2)"/>
  <text x="232" y="72" text-anchor="middle" font-size="12" fill="white" font-weight="bold">1年目</text>
  <rect x="335" y="50" width="185" height="36" rx="6" fill="url(#navyGrad2)"/>
  <text x="427" y="72" text-anchor="middle" font-size="12" fill="white" font-weight="bold">2年目</text>
  <rect x="530" y="50" width="240" height="36" rx="6" fill="#c9a84c"/>
  <text x="650" y="72" text-anchor="middle" font-size="12" fill="white" font-weight="bold">3年目 → 移行</text>
  <rect x="30" y="96" width="100" height="36" fill="#1a2f5e"/>
  <text x="80" y="118" text-anchor="middle" font-size="10" fill="white" font-weight="bold">在留資格</text>
  <rect x="140" y="96" width="375" height="36" fill="#dbeafe"/>
  <text x="332" y="118" text-anchor="middle" font-size="11" fill="#1e40af" font-weight="bold">育成就労（旧：技能実習）</text>
  <rect x="530" y="96" width="240" height="36" fill="#d1fae5"/>
  <text x="650" y="110" text-anchor="middle" font-size="10" fill="#065f46" font-weight="bold">特定技能1号</text>
  <text x="650" y="124" text-anchor="middle" font-size="10" fill="#065f46">（移行後は最長5年）</text>
  <rect x="30" y="132" width="100" height="56" fill="#1a2f5e"/>
  <text x="80" y="154" text-anchor="middle" font-size="10" fill="white" font-weight="bold">日本語</text>
  <text x="80" y="170" text-anchor="middle" font-size="10" fill="white" font-weight="bold">目標</text>
  <rect x="140" y="132" width="185" height="56" fill="#eff6ff" stroke="#bfdbfe" stroke-width="1"/>
  <text x="232" y="153" text-anchor="middle" font-size="22" font-weight="bold" fill="#1a2f5e">N5</text>
  <text x="232" y="175" text-anchor="middle" font-size="10" fill="#3b82f6">入国時 A1相当〜</text>
  <line x1="325" y1="160" x2="338" y2="160" stroke="#c9a84c" stroke-width="2" marker-end="url(#arrow)"/>
  <rect x="335" y="132" width="185" height="56" fill="#eff6ff" stroke="#bfdbfe" stroke-width="1"/>
  <text x="427" y="153" text-anchor="middle" font-size="22" font-weight="bold" fill="#1a2f5e">N4</text>
  <text x="427" y="175" text-anchor="middle" font-size="10" fill="#3b82f6">特定技能移行要件</text>
  <line x1="520" y1="160" x2="533" y2="160" stroke="#c9a84c" stroke-width="2" marker-end="url(#arrow)"/>
  <rect x="530" y="132" width="240" height="56" fill="#ecfdf5" stroke="#a7f3d0" stroke-width="1"/>
  <text x="650" y="150" text-anchor="middle" font-size="11" fill="#065f46" font-weight="bold">N3以上を目指す</text>
  <text x="650" y="168" text-anchor="middle" font-size="10" fill="#059669">定着・昇進に向けた継続学習推奨</text>
  <rect x="30" y="188" width="100" height="56" fill="#1a2f5e"/>
  <text x="80" y="210" text-anchor="middle" font-size="10" fill="white" font-weight="bold">技能</text>
  <text x="80" y="226" text-anchor="middle" font-size="10" fill="white" font-weight="bold">目標</text>
  <rect x="140" y="188" width="185" height="56" fill="#fefce8" stroke="#fde68a" stroke-width="1"/>
  <text x="232" y="208" text-anchor="middle" font-size="11" fill="#92400e" font-weight="bold">基礎業務習得</text>
  <text x="232" y="228" text-anchor="middle" font-size="10" fill="#78350f">技能検定 基礎級</text>
  <line x1="325" y1="216" x2="338" y2="216" stroke="#c9a84c" stroke-width="2" marker-end="url(#arrow)"/>
  <rect x="335" y="188" width="185" height="56" fill="#fefce8" stroke="#fde68a" stroke-width="1"/>
  <text x="427" y="208" text-anchor="middle" font-size="11" fill="#92400e" font-weight="bold">実務応用力</text>
  <text x="427" y="228" text-anchor="middle" font-size="10" fill="#78350f">技能検定 3級合格</text>
  <line x1="520" y1="216" x2="533" y2="216" stroke="#c9a84c" stroke-width="2" marker-end="url(#arrow)"/>
  <rect x="530" y="188" width="240" height="56" fill="#ecfdf5" stroke="#a7f3d0" stroke-width="1"/>
  <text x="650" y="208" text-anchor="middle" font-size="11" fill="#065f46" font-weight="bold">独立業務遂行・指導</text>
  <text x="650" y="228" text-anchor="middle" font-size="10" fill="#059669">特定技能 技能測定試験（試験免除ルートあり）</text>
  <rect x="30" y="244" width="100" height="56" fill="#1a2f5e"/>
  <text x="80" y="262" text-anchor="middle" font-size="10" fill="white" font-weight="bold">企業の</text>
  <text x="80" y="278" text-anchor="middle" font-size="10" fill="white" font-weight="bold">サポート</text>
  <rect x="140" y="244" width="185" height="56" fill="#f9fafb" stroke="#e5e7eb" stroke-width="1"/>
  <text x="232" y="263" text-anchor="middle" font-size="10" fill="#374151">OJT設計・日本語学習時間確保</text>
  <text x="232" y="280" text-anchor="middle" font-size="10" fill="#374151">生活支援全般</text>
  <rect x="335" y="244" width="185" height="56" fill="#f9fafb" stroke="#e5e7eb" stroke-width="1"/>
  <text x="427" y="263" text-anchor="middle" font-size="10" fill="#374151">試験対策サポート</text>
  <text x="427" y="280" text-anchor="middle" font-size="10" fill="#374151">受験費用負担検討</text>
  <rect x="530" y="244" width="240" height="56" fill="#fef3c7" stroke="#fde68a" stroke-width="1"/>
  <text x="650" y="263" text-anchor="middle" font-size="10" fill="#92400e" font-weight="bold">在留資格変更申請サポート</text>
  <text x="650" y="280" text-anchor="middle" font-size="10" fill="#92400e">書類準備2〜3ヶ月前から着手</text>
  <text x="30" y="324" font-size="10" fill="#6b7280">💡 技能実習2号を同分野で良好に修了した場合は日本語試験・技能試験ともに免除</text>
  <text x="30" y="344" font-size="10" fill="#6b7280">出典：出入国在留管理庁「特定技能ガイドブック」育成就労法（2027年4月施行予定）</text>
</svg>