<svg xmlns="http://www.w3.org/2000/svg" viewBox="0 0 200 280" width="200" height="280">
  <rect width="200" height="280" fill="white" rx="4" stroke="#e2e8f0" stroke-width="1"/>
  <rect width="200" height="36" fill="#1a2f5e" rx="4"/>
  <rect x="0" y="28" width="200" height="8" fill="#1a2f5e"/>
  <text x="12" y="22" font-size="11" font-weight="700" fill="white" font-family="sans-serif">чП╛ха┤уБохдзхИЗуБкуГлуГ╝уГл</text>
  <text x="160" y="22" font-size="9" fill="#c9a84c" font-weight="700" font-family="sans-serif">J-GLOW</text>
  <rect x="8" y="44" width="184" height="62" rx="4" fill="white" stroke="#e2e8f0" stroke-width="1"/>
  <rect x="8" y="44" width="184" height="18" fill="#1a2f5e" rx="4"/>
  <rect x="8" y="54" width="184" height="8" fill="#1a2f5e"/>
  <text x="14" y="56" font-size="8" fill="white" font-family="sans-serif">ЁЯж║ хоЙхЕиуГлуГ╝уГл</text>
  <circle cx="18" cy="72" r="5" fill="#c9a84c"/>
  <text x="16" y="75" font-size="6" fill="white" font-family="sans-serif">1</text>
  <rect x="28" y="68" width="120" height="5" rx="2" fill="#e2e8f0"/>
  <circle cx="18" cy="85" r="5" fill="#c9a84c"/>
  <text x="16" y="88" font-size="6" fill="white" font-family="sans-serif">2</text>
  <rect x="28" y="81" width="100" height="5" rx="2" fill="#e2e8f0"/>
  <rect x="8" y="114" width="184" height="56" rx="4" fill="white" stroke="#e2e8f0" stroke-width="1"/>
  <rect x="8" y="114" width="184" height="18" fill="#c0392b" rx="4"/>
  <rect x="8" y="124" width="184" height="8" fill="#c0392b"/>
  <text x="14" y="126" font-size="8" fill="white" font-family="sans-serif">ЁЯЪи ч╖КцАеуБоуБиуБН</text>
  <rect x="14" y="138" width="6" height="5" rx="1" fill="#c0392b"/>
  <rect x="24" y="138" width="110" height="5" rx="2" fill="#e2e8f0"/>
  <rect x="14" y="150" width="6" height="5" rx="1" fill="#c0392b"/>
  <rect x="24" y="150" width="130" height="5" rx="2" fill="#e2e8f0"/>
  <rect x="8" y="178" width="184" height="52" rx="4" fill="white" stroke="#e2e8f0" stroke-width="1"/>
  <rect x="8" y="178" width="184" height="18" fill="#1a2f5e" rx="4"/>
  <rect x="8" y="188" width="184" height="8" fill="#1a2f5e"/>
  <text x="14" y="190" font-size="8" fill="white" font-family="sans-serif">ЁЯУЛ цпОцЧеуБоуГлуГ╝уГл</text>
  <circle cx="18" cy="205" r="5" fill="#c9a84c"/>
  <text x="16" y="208" font-size="6" fill="white" font-family="sans-serif">1</text>
  <rect x="28" y="201" width="110" height="5" rx="2" fill="#e2e8f0"/>
  <circle cx="18" cy="218" r="5" fill="#c9a84c"/>
  <text x="16" y="221" font-size="6" fill="white" font-family="sans-serif">2</text>
  <rect x="28" y="214" width="120" height="5" rx="2" fill="#e2e8f0"/>
  <rect x="8" y="238" width="184" height="32" rx="4" fill="white" stroke="#c9a84c" stroke-width="1" stroke-dasharray="3,2"/>
  <text x="14" y="250" font-size="7" fill="#c9a84c" font-family="sans-serif">тЬПя╕П шиШхЕецмД</text>
  <rect x="14" y="254" width="60" height="3" rx="1" fill="#e2e8f0"/>
  <rect x="90" y="254" width="80" height="3" rx="1" fill="#e2e8f0"/>
  <rect x="14" y="262" width="60" height="3" rx="1" fill="#e2e8f0"/>
  <rect x="90" y="262" width="80" height="3" rx="1" fill="#e2e8f0"/>
</svg>
